# MagicaVoxel @ Ephtracy

# group
o 

# material
mtllib crab_shotgun.mtl
usemtl palette

# normals
vn -1 0 0
vn 1 0 0
vn 0 0 1
vn 0 0 -1
vn 0 -1 0
vn 0 1 0

# texcoords
vt 0.00195313 0.5
vt 0.00585938 0.5
vt 0.00976563 0.5
vt 0.0566406 0.5
vt 0.154297 0.5
vt 0.611328 0.5
vt 0.958984 0.5

# verts
v -0.5 -0.2 0.2
v -0.5 -0.2 -0.3
v -0.5 -0.1 0.3
v -0.5 -0.1 0.2
v -0.5 -0.1 -0.3
v -0.5 -0.1 -0.4
v -0.5 0 0.3
v -0.5 0 -0.4
v -0.5 0.1 0.3
v -0.5 0.1 -0.4
v -0.4 -0.3 0.5
v -0.4 -0.3 0.4
v -0.4 -0.3 -0.5
v -0.4 -0.3 -0.6
v -0.4 -0.1 0.5
v -0.4 -0.1 0.4
v -0.4 -0.1 0.3
v -0.4 -0.1 -0.4
v -0.4 -0.1 -0.5
v -0.4 -0.1 -0.6
v -0.4 0 0.4
v -0.4 0 0.3
v -0.4 0 -0.4
v -0.4 0 -0.5
v -0.4 0.1 0.2
v -0.4 0.1 -0.3
v -0.4 0.2 0.2
v -0.4 0.2 -0.3
v -0.2 -0.3 0.5
v -0.2 -0.3 0.4
v -0.2 -0.3 -0.5
v -0.2 -0.3 -0.6
v -0.2 -0.1 0.5
v -0.2 -0.1 0.4
v -0.2 -0.1 0.3
v -0.2 -0.1 -0.4
v -0.2 -0.1 -0.5
v -0.2 -0.1 -0.6
v -0.2 0 0.4
v -0.2 0 0.3
v -0.2 0 -0.4
v -0.2 0 -0.5
v 0 -0.3 0.5
v 0 -0.3 0.4
v 0 -0.3 -0.5
v 0 -0.3 -0.6
v 0 -0.1 0.5
v 0 -0.1 0.4
v 0 -0.1 0.3
v 0 -0.1 -0.4
v 0 -0.1 -0.5
v 0 -0.1 -0.6
v 0 0 0.4
v 0 0 0.3
v 0 0 -0.4
v 0 0 -0.5
v 0.1 0 0.4
v 0.1 0 0.3
v 0.1 0 -0.4
v 0.1 0 -0.5
v 0.1 0.1 0.4
v 0.1 0.1 0.3
v 0.1 0.1 -0.4
v 0.1 0.1 -0.5
v 0.2 0 0.5
v 0.2 0 0.4
v 0.2 0 -0.5
v 0.2 0 -0.6
v 0.2 0.1 0.5
v 0.2 0.1 0.4
v 0.2 0.1 -0.5
v 0.2 0.1 -0.6
v 0.3 0.1 0.5
v 0.3 0.1 0.3
v 0.3 0.1 -0.4
v 0.3 0.1 -0.6
v 0.3 0.2 0.5
v 0.3 0.2 0.3
v 0.3 0.2 -0.4
v 0.3 0.2 -0.6
v 0.4 -0.1 0.4
v 0.4 -0.1 0.3
v 0.4 0 0.4
v 0.4 0 0.3
v 0.4 0 0.2
v 0.4 0 -0.3
v 0.4 0 -0.4
v 0.4 0.1 0.3
v 0.4 0.1 0.2
v 0.4 0.1 -0.3
v 0.4 0.1 -0.4
v -0.3 -0.3 0.5
v -0.3 -0.3 0.4
v -0.3 -0.3 -0.5
v -0.3 -0.3 -0.6
v -0.3 -0.1 0.5
v -0.3 -0.1 0.4
v -0.3 -0.1 0.3
v -0.3 -0.1 -0.4
v -0.3 -0.1 -0.5
v -0.3 -0.1 -0.6
v -0.3 0 0.4
v -0.3 0 0.3
v -0.3 0 -0.4
v -0.3 0 -0.5
v -0.1 -0.3 0.5
v -0.1 -0.3 0.4
v -0.1 -0.3 -0.5
v -0.1 -0.3 -0.6
v -0.1 -0.1 0.5
v -0.1 -0.1 0.4
v -0.1 -0.1 0.3
v -0.1 -0.1 -0.4
v -0.1 -0.1 -0.5
v -0.1 -0.1 -0.6
v -0.1 0 0.4
v -0.1 0 0.3
v -0.1 0 -0.4
v -0.1 0 -0.5
v 0.1 -0.3 0.5
v 0.1 -0.3 0.4
v 0.1 -0.3 -0.5
v 0.1 -0.3 -0.6
v 0.1 -0.2 0.2
v 0.1 -0.2 -0.3
v 0.1 -0.1 0.5
v 0.1 -0.1 0.4
v 0.1 -0.1 0.3
v 0.1 -0.1 0.2
v 0.1 -0.1 -0.3
v 0.1 -0.1 -0.4
v 0.1 -0.1 -0.5
v 0.1 -0.1 -0.6
v 0.1 0 0.4
v 0.1 0 0.3
v 0.1 0 -0.4
v 0.1 0 -0.5
v 0.1 0.1 0.2
v 0.1 0.1 0.1
v 0.1 0.1 0
v 0.1 0.1 -0.1
v 0.1 0.1 -0.2
v 0.1 0.1 -0.3
v 0.1 0.2 0.2
v 0.1 0.2 0.1
v 0.1 0.2 0
v 0.1 0.2 -0.1
v 0.1 0.2 -0.2
v 0.1 0.2 -0.3
v 0.2 -0.1 0.3
v 0.2 -0.1 -0.4
v 0.2 0 0.3
v 0.2 0 0.1
v 0.2 0 0
v 0.2 0 -0.1
v 0.2 0 -0.2
v 0.2 0 -0.4
v 0.2 0.1 0.3
v 0.2 0.1 0.1
v 0.2 0.1 0
v 0.2 0.1 -0.1
v 0.2 0.1 -0.2
v 0.2 0.1 -0.4
v 0.2 0.2 0.1
v 0.2 0.2 0
v 0.2 0.2 -0.1
v 0.2 0.2 -0.2
v 0.4 0 -0.4
v 0.4 0 -0.5
v 0.4 0.1 -0.4
v 0.4 0.2 -0.4
v 0.4 0.2 -0.5
v 0.5 -0.1 0.4
v 0.5 -0.1 0.3
v 0.5 0 0.5
v 0.5 0 0.4
v 0.5 0 0.3
v 0.5 0 0.2
v 0.5 0 -0.3
v 0.5 0 -0.4
v 0.5 0 -0.5
v 0.5 0 -0.6
v 0.5 0.1 0.4
v 0.5 0.1 0.3
v 0.5 0.1 0.2
v 0.5 0.1 -0.3
v 0.5 0.1 -0.4
v 0.5 0.2 0.5
v 0.5 0.2 0.4
v 0.5 0.2 -0.5
v 0.5 0.2 -0.6
v 0.6 0 0.4
v 0.6 0 0.3
v 0.6 0.1 0.4
v 0.6 0.1 0.3
v 0.8 0.1 0.4
v 0.8 0.1 0.3
v 0.8 0.2 0.4
v 0.8 0.2 0.3
v -0.4 -0.3 0.5
v -0.4 -0.1 0.5
v -0.3 -0.3 0.5
v -0.3 -0.1 0.5
v -0.2 -0.3 0.5
v -0.2 -0.1 0.5
v -0.1 -0.3 0.5
v -0.1 -0.1 0.5
v 0 -0.3 0.5
v 0 -0.1 0.5
v 0.1 -0.3 0.5
v 0.1 -0.1 0.5
v 0.2 0 0.5
v 0.2 0.1 0.5
v 0.3 0.1 0.5
v 0.3 0.2 0.5
v 0.5 0 0.5
v 0.5 0.2 0.5
v -0.4 -0.1 0.4
v -0.4 0 0.4
v -0.3 -0.1 0.4
v -0.3 0 0.4
v -0.2 -0.1 0.4
v -0.2 0 0.4
v -0.1 -0.1 0.4
v -0.1 0 0.4
v 0 -0.1 0.4
v 0 0 0.4
v 0.1 -0.1 0.4
v 0.1 0 0.4
v 0.1 0.1 0.4
v 0.2 0 0.4
v 0.2 0.1 0.4
v 0.4 -0.1 0.4
v 0.4 0 0.4
v 0.5 -0.1 0.4
v 0.5 0 0.4
v 0.5 0.1 0.4
v 0.5 0.2 0.4
v 0.6 0 0.4
v 0.6 0.1 0.4
v 0.8 0.1 0.4
v 0.8 0.2 0.4
v -0.5 -0.1 0.3
v -0.5 0 0.3
v -0.5 0.1 0.3
v -0.4 -0.1 0.3
v -0.4 0 0.3
v -0.3 -0.1 0.3
v -0.3 0 0.3
v -0.3 0.1 0.3
v -0.2 -0.1 0.3
v -0.2 0 0.3
v -0.1 -0.1 0.3
v -0.1 0 0.3
v 0 -0.1 0.3
v 0 0 0.3
v 0.1 -0.1 0.3
v 0.1 0 0.3
v 0.1 0.1 0.3
v 0.2 -0.1 0.3
v 0.2 0 0.3
v -0.5 -0.2 0.2
v -0.5 -0.1 0.2
v -0.4 -0.1 0.2
v -0.4 0.1 0.2
v -0.4 0.2 0.2
v -0.3 -0.1 0.2
v -0.3 0.1 0.2
v -0.2 -0.1 0.2
v -0.1 -0.1 0.2
v 0 -0.1 0.2
v 0.1 -0.2 0.2
v 0.1 -0.1 0.2
v 0.1 0.1 0.2
v 0.1 0.2 0.2
v 0.1 0.1 0.1
v 0.1 0.2 0.1
v 0.2 0.1 0.1
v 0.2 0.2 0.1
v 0.1 0.1 -0.1
v 0.1 0.2 -0.1
v 0.2 0.1 -0.1
v 0.2 0.2 -0.1
v 0.4 0 -0.3
v 0.4 0.1 -0.3
v 0.5 0 -0.3
v 0.5 0.1 -0.3
v 0.2 0 -0.4
v 0.2 0.1 -0.4
v 0.3 0.1 -0.4
v 0.3 0.2 -0.4
v 0.4 0 -0.4
v 0.4 0.1 -0.4
v 0.4 0.2 -0.4
v -0.4 -0.3 -0.5
v -0.4 -0.1 -0.5
v -0.3 -0.3 -0.5
v -0.3 -0.1 -0.5
v -0.2 -0.3 -0.5
v -0.2 -0.1 -0.5
v -0.1 -0.3 -0.5
v -0.1 -0.1 -0.5
v 0 -0.3 -0.5
v 0 -0.1 -0.5
v 0.1 -0.3 -0.5
v 0.1 -0.1 -0.5
v 0.4 0 -0.5
v 0.4 0.2 -0.5
v 0.5 0 -0.5
v 0.5 0.2 -0.5
v -0.4 -0.3 0.4
v -0.4 -0.1 0.4
v -0.3 -0.3 0.4
v -0.3 -0.1 0.4
v -0.2 -0.3 0.4
v -0.2 -0.1 0.4
v -0.1 -0.3 0.4
v -0.1 -0.1 0.4
v 0 -0.3 0.4
v 0 -0.1 0.4
v 0.1 -0.3 0.4
v 0.1 -0.1 0.4
v 0.2 0 0.3
v 0.2 0.1 0.3
v 0.3 0.1 0.3
v 0.3 0.2 0.3
v 0.4 -0.1 0.3
v 0.4 0 0.3
v 0.4 0.1 0.3
v 0.4 0.2 0.3
v 0.5 -0.1 0.3
v 0.5 0 0.3
v 0.5 0.1 0.3
v 0.6 0 0.3
v 0.6 0.1 0.3
v 0.8 0.1 0.3
v 0.8 0.2 0.3
v 0.4 0 0.2
v 0.4 0.1 0.2
v 0.5 0 0.2
v 0.5 0.1 0.2
v 0.1 0.1 0
v 0.1 0.2 0
v 0.2 0.1 0
v 0.2 0.2 0
v 0.1 0.1 -0.2
v 0.1 0.2 -0.2
v 0.2 0.1 -0.2
v 0.2 0.2 -0.2
v -0.5 -0.2 -0.3
v -0.5 -0.1 -0.3
v -0.4 -0.1 -0.3
v -0.4 0.1 -0.3
v -0.4 0.2 -0.3
v -0.3 -0.1 -0.3
v -0.3 0.1 -0.3
v -0.2 -0.1 -0.3
v -0.1 -0.1 -0.3
v 0 -0.1 -0.3
v 0.1 -0.2 -0.3
v 0.1 -0.1 -0.3
v 0.1 0.1 -0.3
v 0.1 0.2 -0.3
v -0.5 -0.1 -0.4
v -0.5 0 -0.4
v -0.5 0.1 -0.4
v -0.4 -0.1 -0.4
v -0.4 0 -0.4
v -0.3 -0.1 -0.4
v -0.3 0 -0.4
v -0.3 0.1 -0.4
v -0.2 -0.1 -0.4
v -0.2 0 -0.4
v -0.1 -0.1 -0.4
v -0.1 0 -0.4
v 0 -0.1 -0.4
v 0 0 -0.4
v 0.1 -0.1 -0.4
v 0.1 0 -0.4
v 0.1 0.1 -0.4
v 0.2 -0.1 -0.4
v 0.2 0 -0.4
v 0.4 0 -0.4
v 0.4 0.1 -0.4
v 0.5 0 -0.4
v 0.5 0.1 -0.4
v -0.4 -0.1 -0.5
v -0.4 0 -0.5
v -0.3 -0.1 -0.5
v -0.3 0 -0.5
v -0.2 -0.1 -0.5
v -0.2 0 -0.5
v -0.1 -0.1 -0.5
v -0.1 0 -0.5
v 0 -0.1 -0.5
v 0 0 -0.5
v 0.1 -0.1 -0.5
v 0.1 0 -0.5
v 0.1 0.1 -0.5
v 0.2 0 -0.5
v 0.2 0.1 -0.5
v -0.4 -0.3 -0.6
v -0.4 -0.1 -0.6
v -0.3 -0.3 -0.6
v -0.3 -0.1 -0.6
v -0.2 -0.3 -0.6
v -0.2 -0.1 -0.6
v -0.1 -0.3 -0.6
v -0.1 -0.1 -0.6
v 0 -0.3 -0.6
v 0 -0.1 -0.6
v 0.1 -0.3 -0.6
v 0.1 -0.1 -0.6
v 0.2 0 -0.6
v 0.2 0.1 -0.6
v 0.3 0.1 -0.6
v 0.3 0.2 -0.6
v 0.5 0 -0.6
v 0.5 0.2 -0.6
v -0.4 -0.3 0.5
v -0.3 -0.3 0.5
v -0.2 -0.3 0.5
v -0.1 -0.3 0.5
v 0 -0.3 0.5
v 0.1 -0.3 0.5
v -0.4 -0.3 0.4
v -0.3 -0.3 0.4
v -0.2 -0.3 0.4
v -0.1 -0.3 0.4
v 0 -0.3 0.4
v 0.1 -0.3 0.4
v -0.4 -0.3 -0.5
v -0.3 -0.3 -0.5
v -0.2 -0.3 -0.5
v -0.1 -0.3 -0.5
v 0 -0.3 -0.5
v 0.1 -0.3 -0.5
v -0.4 -0.3 -0.6
v -0.3 -0.3 -0.6
v -0.2 -0.3 -0.6
v -0.1 -0.3 -0.6
v 0 -0.3 -0.6
v 0.1 -0.3 -0.6
v -0.5 -0.2 0.2
v 0.1 -0.2 0.2
v -0.5 -0.2 -0.3
v 0.1 -0.2 -0.3
v -0.4 -0.1 0.4
v -0.3 -0.1 0.4
v -0.2 -0.1 0.4
v -0.1 -0.1 0.4
v 0 -0.1 0.4
v 0.1 -0.1 0.4
v 0.4 -0.1 0.4
v 0.5 -0.1 0.4
v -0.5 -0.1 0.3
v -0.4 -0.1 0.3
v -0.3 -0.1 0.3
v -0.2 -0.1 0.3
v -0.1 -0.1 0.3
v 0 -0.1 0.3
v 0.1 -0.1 0.3
v 0.2 -0.1 0.3
v 0.4 -0.1 0.3
v 0.5 -0.1 0.3
v -0.5 -0.1 0.2
v -0.4 -0.1 0.2
v -0.3 -0.1 0.2
v -0.2 -0.1 0.2
v -0.1 -0.1 0.2
v 0 -0.1 0.2
v 0.1 -0.1 0.2
v -0.5 -0.1 -0.3
v -0.4 -0.1 -0.3
v -0.3 -0.1 -0.3
v -0.2 -0.1 -0.3
v -0.1 -0.1 -0.3
v 0 -0.1 -0.3
v 0.1 -0.1 -0.3
v -0.5 -0.1 -0.4
v -0.4 -0.1 -0.4
v -0.3 -0.1 -0.4
v -0.2 -0.1 -0.4
v -0.1 -0.1 -0.4
v 0 -0.1 -0.4
v 0.1 -0.1 -0.4
v 0.2 -0.1 -0.4
v -0.4 -0.1 -0.5
v -0.3 -0.1 -0.5
v -0.2 -0.1 -0.5
v -0.1 -0.1 -0.5
v 0 -0.1 -0.5
v 0.1 -0.1 -0.5
v 0.2 0 0.5
v 0.5 0 0.5
v 0.1 0 0.4
v 0.2 0 0.4
v 0.4 0 0.4
v 0.5 0 0.4
v 0.6 0 0.4
v 0.1 0 0.3
v 0.2 0 0.3
v 0.4 0 0.3
v 0.5 0 0.3
v 0.6 0 0.3
v 0.4 0 0.2
v 0.5 0 0.2
v 0.4 0 -0.3
v 0.5 0 -0.3
v 0.1 0 -0.4
v 0.2 0 -0.4
v 0.4 0 -0.4
v 0.5 0 -0.4
v 0.1 0 -0.5
v 0.2 0 -0.5
v 0.4 0 -0.5
v 0.5 0 -0.5
v 0.2 0 -0.6
v 0.5 0 -0.6
v 0.6 0.1 0.4
v 0.8 0.1 0.4
v 0.6 0.1 0.3
v 0.8 0.1 0.3
v -0.4 -0.1 0.5
v -0.3 -0.1 0.5
v -0.2 -0.1 0.5
v -0.1 -0.1 0.5
v 0 -0.1 0.5
v 0.1 -0.1 0.5
v -0.4 -0.1 0.4
v -0.3 -0.1 0.4
v -0.2 -0.1 0.4
v -0.1 -0.1 0.4
v 0 -0.1 0.4
v 0.1 -0.1 0.4
v -0.4 -0.1 -0.5
v -0.3 -0.1 -0.5
v -0.2 -0.1 -0.5
v -0.1 -0.1 -0.5
v 0 -0.1 -0.5
v 0.1 -0.1 -0.5
v -0.4 -0.1 -0.6
v -0.3 -0.1 -0.6
v -0.2 -0.1 -0.6
v -0.1 -0.1 -0.6
v 0 -0.1 -0.6
v 0.1 -0.1 -0.6
v -0.4 0 0.4
v -0.3 0 0.4
v -0.2 0 0.4
v -0.1 0 0.4
v 0 0 0.4
v 0.1 0 0.4
v -0.4 0 0.3
v -0.3 0 0.3
v -0.2 0 0.3
v -0.1 0 0.3
v 0 0 0.3
v 0.1 0 0.3
v -0.4 0 -0.4
v -0.3 0 -0.4
v -0.2 0 -0.4
v -0.1 0 -0.4
v 0 0 -0.4
v 0.1 0 -0.4
v -0.4 0 -0.5
v -0.3 0 -0.5
v -0.2 0 -0.5
v -0.1 0 -0.5
v 0 0 -0.5
v 0.1 0 -0.5
v 0.2 0.1 0.5
v 0.3 0.1 0.5
v 0.1 0.1 0.4
v 0.2 0.1 0.4
v -0.5 0.1 0.3
v -0.3 0.1 0.3
v 0.1 0.1 0.3
v 0.2 0.1 0.3
v 0.3 0.1 0.3
v 0.4 0.1 0.3
v 0.5 0.1 0.3
v -0.4 0.1 0.2
v -0.3 0.1 0.2
v 0.1 0.1 0.2
v 0.4 0.1 0.2
v 0.5 0.1 0.2
v 0.1 0.1 0.1
v 0.2 0.1 0.1
v 0.1 0.1 0
v 0.2 0.1 0
v 0.1 0.1 -0.1
v 0.2 0.1 -0.1
v 0.1 0.1 -0.2
v 0.2 0.1 -0.2
v -0.4 0.1 -0.3
v -0.3 0.1 -0.3
v 0.1 0.1 -0.3
v 0.4 0.1 -0.3
v 0.5 0.1 -0.3
v -0.5 0.1 -0.4
v -0.3 0.1 -0.4
v 0.1 0.1 -0.4
v 0.2 0.1 -0.4
v 0.3 0.1 -0.4
v 0.4 0.1 -0.4
v 0.5 0.1 -0.4
v 0.1 0.1 -0.5
v 0.2 0.1 -0.5
v 0.2 0.1 -0.6
v 0.3 0.1 -0.6
v 0.3 0.2 0.5
v 0.5 0.2 0.5
v 0.4 0.2 0.4
v 0.5 0.2 0.4
v 0.8 0.2 0.4
v 0.3 0.2 0.3
v 0.4 0.2 0.3
v 0.8 0.2 0.3
v -0.4 0.2 0.2
v 0.1 0.2 0.2
v 0.1 0.2 0.1
v 0.2 0.2 0.1
v 0.1 0.2 0
v 0.2 0.2 0
v 0.1 0.2 -0.1
v 0.2 0.2 -0.1
v 0.1 0.2 -0.2
v 0.2 0.2 -0.2
v -0.4 0.2 -0.3
v 0.1 0.2 -0.3
v 0.3 0.2 -0.4
v 0.4 0.2 -0.4
v 0.4 0.2 -0.5
v 0.5 0.2 -0.5
v 0.3 0.2 -0.6
v 0.5 0.2 -0.6

# faces
f 4/1/1 2/1/1 1/1/1
f 5/1/1 2/1/1 4/1/1
f 7/3/1 4/3/1 3/3/1
f 7/3/1 6/3/1 5/3/1
f 7/3/1 5/3/1 4/3/1
f 8/3/1 6/3/1 7/3/1
f 9/2/1 8/2/1 7/2/1
f 10/2/1 8/2/1 9/2/1
f 15/3/1 12/3/1 11/3/1
f 16/3/1 12/3/1 15/3/1
f 19/3/1 14/3/1 13/3/1
f 20/3/1 14/3/1 19/3/1
f 21/3/1 17/3/1 16/3/1
f 22/3/1 17/3/1 21/3/1
f 23/3/1 19/3/1 18/3/1
f 24/3/1 19/3/1 23/3/1
f 27/2/1 26/2/1 25/2/1
f 28/2/1 26/2/1 27/2/1
f 33/3/1 30/3/1 29/3/1
f 34/3/1 30/3/1 33/3/1
f 37/3/1 32/3/1 31/3/1
f 38/3/1 32/3/1 37/3/1
f 39/3/1 35/3/1 34/3/1
f 40/3/1 35/3/1 39/3/1
f 41/3/1 37/3/1 36/3/1
f 42/3/1 37/3/1 41/3/1
f 47/3/1 44/3/1 43/3/1
f 48/3/1 44/3/1 47/3/1
f 51/3/1 46/3/1 45/3/1
f 52/3/1 46/3/1 51/3/1
f 53/3/1 49/3/1 48/3/1
f 54/3/1 49/3/1 53/3/1
f 55/3/1 51/3/1 50/3/1
f 56/3/1 51/3/1 55/3/1
f 61/2/1 58/2/1 57/2/1
f 62/2/1 58/2/1 61/2/1
f 63/2/1 60/2/1 59/2/1
f 64/2/1 60/2/1 63/2/1
f 69/2/1 66/2/1 65/2/1
f 70/2/1 66/2/1 69/2/1
f 71/2/1 68/2/1 67/2/1
f 72/2/1 68/2/1 71/2/1
f 77/2/1 74/2/1 73/2/1
f 78/2/1 74/2/1 77/2/1
f 79/2/1 76/2/1 75/2/1
f 80/2/1 76/2/1 79/2/1
f 83/5/1 82/5/1 81/5/1
f 84/5/1 82/5/1 83/5/1
f 88/2/1 85/2/1 84/2/1
f 89/2/1 85/2/1 88/2/1
f 90/2/1 87/2/1 86/2/1
f 91/2/1 87/2/1 90/2/1
f 92/3/2 93/3/2 96/3/2
f 96/3/2 93/3/2 97/3/2
f 94/3/2 95/3/2 100/3/2
f 100/3/2 95/3/2 101/3/2
f 97/3/2 98/3/2 102/3/2
f 102/3/2 98/3/2 103/3/2
f 99/3/2 100/3/2 104/3/2
f 104/3/2 100/3/2 105/3/2
f 106/3/2 107/3/2 110/3/2
f 110/3/2 107/3/2 111/3/2
f 108/3/2 109/3/2 114/3/2
f 114/3/2 109/3/2 115/3/2
f 111/3/2 112/3/2 116/3/2
f 116/3/2 112/3/2 117/3/2
f 113/3/2 114/3/2 118/3/2
f 118/3/2 114/3/2 119/3/2
f 120/3/2 121/3/2 126/3/2
f 126/3/2 121/3/2 127/3/2
f 124/1/2 125/1/2 129/1/2
f 129/1/2 125/1/2 130/1/2
f 122/3/2 123/3/2 132/3/2
f 132/3/2 123/3/2 133/3/2
f 127/3/2 128/3/2 134/3/2
f 134/3/2 128/3/2 135/3/2
f 131/3/2 132/3/2 136/3/2
f 136/3/2 132/3/2 137/3/2
f 138/2/2 139/2/2 144/2/2
f 144/2/2 139/2/2 145/2/2
f 140/2/2 141/2/2 146/2/2
f 146/2/2 141/2/2 147/2/2
f 142/2/2 143/2/2 148/2/2
f 148/2/2 143/2/2 149/2/2
f 150/3/2 151/3/2 152/3/2
f 152/3/2 151/3/2 153/3/2
f 153/3/2 151/3/2 154/3/2
f 154/3/2 151/3/2 155/3/2
f 155/3/2 151/3/2 156/3/2
f 156/3/2 151/3/2 157/3/2
f 152/2/2 153/2/2 158/2/2
f 153/7/2 154/7/2 159/7/2
f 158/2/2 153/2/2 159/2/2
f 154/2/2 155/2/2 160/2/2
f 159/7/2 154/7/2 160/7/2
f 155/7/2 156/7/2 161/7/2
f 160/2/2 155/2/2 161/2/2
f 156/2/2 157/2/2 162/2/2
f 161/7/2 156/7/2 162/7/2
f 162/2/2 157/2/2 163/2/2
f 159/7/2 160/7/2 164/7/2
f 164/7/2 160/7/2 165/7/2
f 161/7/2 162/7/2 166/7/2
f 166/7/2 162/7/2 167/7/2
f 168/2/2 169/2/2 170/2/2
f 170/2/2 169/2/2 171/2/2
f 171/2/2 169/2/2 172/2/2
f 173/5/2 174/5/2 176/5/2
f 176/5/2 174/5/2 177/5/2
f 175/2/2 176/2/2 183/2/2
f 177/2/2 178/2/2 184/2/2
f 184/2/2 178/2/2 185/2/2
f 179/2/2 180/2/2 186/2/2
f 186/2/2 180/2/2 187/2/2
f 175/2/2 183/2/2 188/2/2
f 188/2/2 183/2/2 189/2/2
f 181/2/2 182/2/2 190/2/2
f 190/2/2 182/2/2 191/2/2
f 192/4/2 193/4/2 194/4/2
f 194/4/2 193/4/2 195/4/2
f 196/5/2 197/5/2 198/5/2
f 198/5/2 197/5/2 199/5/2
f 202/3/3 201/3/3 200/3/3
f 203/3/3 201/3/3 202/3/3
f 206/3/3 205/3/3 204/3/3
f 207/3/3 205/3/3 206/3/3
f 210/3/3 209/3/3 208/3/3
f 211/3/3 209/3/3 210/3/3
f 214/2/3 213/2/3 212/2/3
f 216/2/3 214/2/3 212/2/3
f 216/2/3 215/2/3 214/2/3
f 217/2/3 215/2/3 216/2/3
f 220/3/3 219/3/3 218/3/3
f 221/3/3 219/3/3 220/3/3
f 224/3/3 223/3/3 222/3/3
f 225/3/3 223/3/3 224/3/3
f 228/3/3 227/3/3 226/3/3
f 229/3/3 227/3/3 228/3/3
f 231/2/3 230/2/3 229/2/3
f 232/2/3 230/2/3 231/2/3
f 235/5/3 234/5/3 233/5/3
f 236/5/3 234/5/3 235/5/3
f 239/4/3 237/4/3 236/4/3
f 240/5/3 238/5/3 237/5/3
f 240/4/3 237/4/3 239/4/3
f 241/5/3 238/5/3 240/5/3
f 242/5/3 238/5/3 241/5/3
f 246/3/3 244/3/3 243/3/3
f 247/2/3 245/2/3 244/2/3
f 247/3/3 244/3/3 246/3/3
f 249/2/3 245/2/3 247/2/3
f 250/2/3 245/2/3 249/2/3
f 251/3/3 249/3/3 248/3/3
f 251/3/3 250/3/3 249/3/3
f 252/3/3 250/3/3 251/3/3
f 254/3/3 250/3/3 252/3/3
f 255/3/3 254/3/3 253/3/3
f 256/3/3 250/3/3 254/3/3
f 256/3/3 254/3/3 255/3/3
f 258/3/3 250/3/3 256/3/3
f 259/3/3 250/3/3 258/3/3
f 260/3/3 258/3/3 257/3/3
f 261/3/3 258/3/3 260/3/3
f 264/1/3 263/1/3 262/1/3
f 267/1/3 264/1/3 262/1/3
f 268/2/3 266/2/3 265/2/3
f 269/1/3 267/1/3 262/1/3
f 270/1/3 269/1/3 262/1/3
f 271/1/3 270/1/3 262/1/3
f 272/1/3 271/1/3 262/1/3
f 273/1/3 271/1/3 272/1/3
f 274/2/3 266/2/3 268/2/3
f 275/2/3 266/2/3 274/2/3
f 278/7/3 277/7/3 276/7/3
f 279/7/3 277/7/3 278/7/3
f 282/7/3 281/7/3 280/7/3
f 283/7/3 281/7/3 282/7/3
f 286/2/3 285/2/3 284/2/3
f 287/2/3 285/2/3 286/2/3
f 290/2/3 289/2/3 288/2/3
f 292/2/3 290/2/3 288/2/3
f 292/2/3 291/2/3 290/2/3
f 293/2/3 291/2/3 292/2/3
f 294/2/3 291/2/3 293/2/3
f 297/3/3 296/3/3 295/3/3
f 298/3/3 296/3/3 297/3/3
f 301/3/3 300/3/3 299/3/3
f 302/3/3 300/3/3 301/3/3
f 305/3/3 304/3/3 303/3/3
f 306/3/3 304/3/3 305/3/3
f 309/2/3 308/2/3 307/2/3
f 310/2/3 308/2/3 309/2/3
f 311/3/4 312/3/4 313/3/4
f 313/3/4 312/3/4 314/3/4
f 315/3/4 316/3/4 317/3/4
f 317/3/4 316/3/4 318/3/4
f 319/3/4 320/3/4 321/3/4
f 321/3/4 320/3/4 322/3/4
f 323/2/4 324/2/4 325/2/4
f 323/2/4 325/2/4 328/2/4
f 325/2/4 326/2/4 328/2/4
f 328/2/4 326/2/4 329/2/4
f 329/2/4 326/2/4 330/2/4
f 327/5/4 328/5/4 331/5/4
f 331/5/4 328/5/4 332/5/4
f 329/5/4 330/5/4 333/5/4
f 332/4/4 333/4/4 334/4/4
f 333/5/4 330/5/4 335/5/4
f 334/4/4 333/4/4 335/4/4
f 335/5/4 330/5/4 336/5/4
f 336/5/4 330/5/4 337/5/4
f 338/2/4 339/2/4 340/2/4
f 340/2/4 339/2/4 341/2/4
f 342/7/4 343/7/4 344/7/4
f 344/7/4 343/7/4 345/7/4
f 346/7/4 347/7/4 348/7/4
f 348/7/4 347/7/4 349/7/4
f 350/1/4 351/1/4 352/1/4
f 350/1/4 352/1/4 355/1/4
f 353/2/4 354/2/4 356/2/4
f 350/1/4 355/1/4 357/1/4
f 350/1/4 357/1/4 358/1/4
f 350/1/4 358/1/4 359/1/4
f 350/1/4 359/1/4 360/1/4
f 360/1/4 359/1/4 361/1/4
f 356/2/4 354/2/4 362/2/4
f 362/2/4 354/2/4 363/2/4
f 364/3/4 365/3/4 367/3/4
f 365/2/4 366/2/4 368/2/4
f 367/3/4 365/3/4 368/3/4
f 368/2/4 366/2/4 370/2/4
f 370/2/4 366/2/4 371/2/4
f 369/3/4 370/3/4 372/3/4
f 370/3/4 371/3/4 372/3/4
f 372/3/4 371/3/4 373/3/4
f 373/3/4 371/3/4 375/3/4
f 374/3/4 375/3/4 376/3/4
f 375/3/4 371/3/4 377/3/4
f 376/3/4 375/3/4 377/3/4
f 377/3/4 371/3/4 379/3/4
f 379/3/4 371/3/4 380/3/4
f 378/3/4 379/3/4 381/3/4
f 381/3/4 379/3/4 382/3/4
f 383/2/4 384/2/4 385/2/4
f 385/2/4 384/2/4 386/2/4
f 387/3/4 388/3/4 389/3/4
f 389/3/4 388/3/4 390/3/4
f 391/3/4 392/3/4 393/3/4
f 393/3/4 392/3/4 394/3/4
f 395/3/4 396/3/4 397/3/4
f 397/3/4 396/3/4 398/3/4
f 398/2/4 399/2/4 400/2/4
f 400/2/4 399/2/4 401/2/4
f 402/3/4 403/3/4 404/3/4
f 404/3/4 403/3/4 405/3/4
f 406/3/4 407/3/4 408/3/4
f 408/3/4 407/3/4 409/3/4
f 410/3/4 411/3/4 412/3/4
f 412/3/4 411/3/4 413/3/4
f 414/2/4 415/2/4 416/2/4
f 414/2/4 416/2/4 418/2/4
f 416/2/4 417/2/4 418/2/4
f 418/2/4 417/2/4 419/2/4
f 426/3/5 421/3/5 420/3/5
f 427/3/5 421/3/5 426/3/5
f 428/3/5 423/3/5 422/3/5
f 429/3/5 423/3/5 428/3/5
f 430/3/5 425/3/5 424/3/5
f 431/3/5 425/3/5 430/3/5
f 438/3/5 433/3/5 432/3/5
f 439/3/5 433/3/5 438/3/5
f 440/3/5 435/3/5 434/3/5
f 441/3/5 435/3/5 440/3/5
f 442/3/5 437/3/5 436/3/5
f 443/3/5 437/3/5 442/3/5
f 446/1/5 445/1/5 444/1/5
f 447/1/5 445/1/5 446/1/5
f 457/3/5 449/3/5 448/3/5
f 458/3/5 449/3/5 457/3/5
f 459/3/5 451/3/5 450/3/5
f 460/3/5 451/3/5 459/3/5
f 461/3/5 453/3/5 452/3/5
f 462/3/5 453/3/5 461/3/5
f 464/5/5 455/5/5 454/5/5
f 465/5/5 455/5/5 464/5/5
f 466/3/5 457/3/5 456/3/5
f 467/2/5 458/2/5 457/2/5
f 467/3/5 457/3/5 466/3/5
f 468/3/5 459/3/5 458/3/5
f 468/2/5 458/2/5 467/2/5
f 469/2/5 460/2/5 459/2/5
f 469/3/5 459/3/5 468/3/5
f 470/3/5 461/3/5 460/3/5
f 470/2/5 460/2/5 469/2/5
f 471/2/5 462/2/5 461/2/5
f 471/3/5 461/3/5 470/3/5
f 472/3/5 463/3/5 462/3/5
f 472/2/5 462/2/5 471/2/5
f 479/3/5 463/3/5 472/3/5
f 480/3/5 474/3/5 473/3/5
f 481/2/5 475/2/5 474/2/5
f 481/3/5 474/3/5 480/3/5
f 482/3/5 476/3/5 475/3/5
f 482/2/5 475/2/5 481/2/5
f 483/2/5 477/2/5 476/2/5
f 483/3/5 476/3/5 482/3/5
f 484/3/5 478/3/5 477/3/5
f 484/2/5 477/2/5 483/2/5
f 485/2/5 479/2/5 478/2/5
f 485/3/5 478/3/5 484/3/5
f 486/3/5 463/3/5 479/3/5
f 486/2/5 479/2/5 485/2/5
f 487/3/5 463/3/5 486/3/5
f 488/3/5 482/3/5 481/3/5
f 489/3/5 482/3/5 488/3/5
f 490/3/5 484/3/5 483/3/5
f 491/3/5 484/3/5 490/3/5
f 492/3/5 486/3/5 485/3/5
f 493/3/5 486/3/5 492/3/5
f 497/2/5 495/2/5 494/2/5
f 498/2/5 495/2/5 497/2/5
f 499/2/5 495/2/5 498/2/5
f 501/2/5 497/2/5 496/2/5
f 501/2/5 498/2/5 497/2/5
f 502/2/5 498/2/5 501/2/5
f 503/2/5 498/2/5 502/2/5
f 504/4/5 500/4/5 499/4/5
f 505/4/5 500/4/5 504/4/5
f 506/2/5 504/2/5 503/2/5
f 507/2/5 504/2/5 506/2/5
f 512/2/5 509/2/5 508/2/5
f 513/2/5 509/2/5 512/2/5
f 514/2/5 511/2/5 510/2/5
f 514/2/5 512/2/5 511/2/5
f 515/2/5 512/2/5 514/2/5
f 516/2/5 512/2/5 515/2/5
f 518/2/5 517/2/5 516/2/5
f 518/2/5 516/2/5 515/2/5
f 519/2/5 517/2/5 518/2/5
f 522/5/5 521/5/5 520/5/5
f 523/5/5 521/5/5 522/5/5
f 524/3/6 525/3/6 530/3/6
f 530/3/6 525/3/6 531/3/6
f 526/3/6 527/3/6 532/3/6
f 532/3/6 527/3/6 533/3/6
f 528/3/6 529/3/6 534/3/6
f 534/3/6 529/3/6 535/3/6
f 536/3/6 537/3/6 542/3/6
f 542/3/6 537/3/6 543/3/6
f 538/3/6 539/3/6 544/3/6
f 544/3/6 539/3/6 545/3/6
f 540/3/6 541/3/6 546/3/6
f 546/3/6 541/3/6 547/3/6
f 548/3/6 549/3/6 554/3/6
f 554/3/6 549/3/6 555/3/6
f 550/3/6 551/3/6 556/3/6
f 556/3/6 551/3/6 557/3/6
f 552/3/6 553/3/6 558/3/6
f 558/3/6 553/3/6 559/3/6
f 560/3/6 561/3/6 566/3/6
f 566/3/6 561/3/6 567/3/6
f 562/3/6 563/3/6 568/3/6
f 568/3/6 563/3/6 569/3/6
f 564/3/6 565/3/6 570/3/6
f 570/3/6 565/3/6 571/3/6
f 572/2/6 573/2/6 575/2/6
f 574/2/6 575/2/6 578/2/6
f 575/2/6 573/2/6 579/2/6
f 578/2/6 575/2/6 579/2/6
f 579/2/6 573/2/6 580/2/6
f 576/2/6 577/2/6 583/2/6
f 577/3/6 578/3/6 584/3/6
f 583/2/6 577/2/6 584/2/6
f 578/2/6 579/2/6 585/2/6
f 584/3/6 578/3/6 585/3/6
f 581/2/6 582/2/6 586/2/6
f 586/2/6 582/2/6 587/2/6
f 585/2/6 579/2/6 588/2/6
f 588/2/6 579/2/6 589/2/6
f 590/2/6 591/2/6 592/2/6
f 592/2/6 591/2/6 593/2/6
f 576/2/6 583/2/6 596/2/6
f 594/2/6 595/2/6 598/2/6
f 596/2/6 597/2/6 601/2/6
f 576/2/6 596/2/6 601/2/6
f 597/3/6 598/3/6 602/3/6
f 601/2/6 597/2/6 602/2/6
f 598/2/6 595/2/6 603/2/6
f 602/3/6 598/3/6 603/3/6
f 603/2/6 595/2/6 604/2/6
f 599/2/6 600/2/6 606/2/6
f 606/2/6 600/2/6 607/2/6
f 604/2/6 605/2/6 608/2/6
f 603/2/6 604/2/6 608/2/6
f 608/2/6 605/2/6 609/2/6
f 609/2/6 605/2/6 610/2/6
f 610/2/6 605/2/6 611/2/6
f 612/2/6 613/2/6 614/2/6
f 614/2/6 613/2/6 615/2/6
f 612/2/6 614/2/6 617/2/6
f 615/5/6 616/5/6 618/5/6
f 617/2/6 614/2/6 618/2/6
f 614/5/6 615/5/6 618/5/6
f 618/5/6 616/5/6 619/5/6
f 620/2/6 621/2/6 622/2/6
f 620/2/6 622/2/6 624/2/6
f 622/7/6 623/7/6 624/7/6
f 624/7/6 623/7/6 625/7/6
f 620/2/6 624/2/6 626/2/6
f 620/2/6 626/2/6 628/2/6
f 626/7/6 627/7/6 628/7/6
f 628/7/6 627/7/6 629/7/6
f 620/2/6 628/2/6 630/2/6
f 630/2/6 628/2/6 631/2/6
f 632/2/6 633/2/6 634/2/6
f 632/2/6 634/2/6 636/2/6
f 634/2/6 635/2/6 636/2/6
f 636/2/6 635/2/6 637/2/6
